<?xml version="1.0" encoding="utf-8"?>
<!-- Generator: Adobe Illustrator 25.0.0, SVG Export Plug-In . SVG Version: 6.00 Build 0)  -->
<svg version="1.1" id="Layer_1" xmlns="http://www.w3.org/2000/svg" xmlns:xlink="http://www.w3.org/1999/xlink" x="0px" y="0px"
	 viewBox="0 0 330 330" style="enable-background:new 0 0 330 330;" xml:space="preserve">
<style type="text/css">
	.st0{fill:#B2B3B3;}
</style>
<g>
	<path class="st0" d="M46.9,86.4c4-1.7,236-1.7,240.2,0.1c-7.7,6.3-15.4,12.4-23,18.6c-17.3,14-34.5,28.1-51.8,42.1
		c-10.9,8.9-21.7,17.9-32.8,26.6c-6.4,5-17.7,6.9-28.9-2.5c-19.3-16.4-39.2-32.1-58.9-48.1c-14.8-12-29.6-24-44.3-36
		C47.2,87,47.1,86.6,46.9,86.4z"/>
	<path class="st0" d="M47.7,251.3c8.9-6.1,17.8-12.2,26.8-18.4c23.1-15.8,46.2-31.6,69.3-47.5c2.5-1.7,4.3-2.1,7.3-0.4
		c10.8,6,21.9,5.5,32.6-0.5c1.8-1,3-1.2,4.7,0c32.2,22.1,64.5,44.1,96.8,66.1c0.3,0.2,0.6,0.6,1.5,1.4c-80,0-159.4,0-238.8,0
		C47.8,251.7,47.8,251.5,47.7,251.3z"/>
	<path class="st0" d="M296.2,244.6c-34.1-23.3-67.4-46.1-101-69c33.6-27.3,67-54.4,101.1-82.1c0.5,3,1.3,5.4,1.3,7.9
		c0.1,45,0.1,90,0,134.9C297.5,238.8,296.7,241.4,296.2,244.6z"/>
	<path class="st0" d="M37.6,93.4c34,27.6,67.4,54.7,101.1,82.1c-33.5,22.9-66.8,45.7-100.8,69.1c-0.6-3.1-1.5-5.6-1.5-8.2
		c-0.1-45.1-0.1-90.2,0-135.3C36.3,98.8,37,96.4,37.6,93.4z"/>
</g>
</svg>
